<svg width="1600" height="420" viewBox="0 0 1600 420" fill="none" xmlns="http://www.w3.org/2000/svg">
  <defs>
    <linearGradient id="bagFront" x1="86" y1="66" x2="248" y2="314" gradientUnits="userSpaceOnUse">
      <stop offset="0" stop-color="#A8D95C"/>
      <stop offset="1" stop-color="#7CC244"/>
    </linearGradient>
    <linearGradient id="bagSide" x1="220" y1="108" x2="296" y2="316" gradientUnits="userSpaceOnUse">
      <stop offset="0" stop-color="#5E9B3F"/>
      <stop offset="1" stop-color="#3F6F2C"/>
    </linearGradient>
    <linearGradient id="ring" x1="20" y1="20" x2="260" y2="260" gradientUnits="userSpaceOnUse">
      <stop offset="0" stop-color="#CFEA7A"/>
      <stop offset="1" stop-color="#7CC244"/>
    </linearGradient>
    <filter id="softShadow" x="0" y="0" width="380" height="380" filterUnits="userSpaceOnUse" color-interpolation-filters="sRGB">
      <feFlood flood-opacity="0" result="BackgroundImageFix"/>
      <feColorMatrix in="SourceAlpha" type="matrix" values="0 0 0 0 0 0 0 0 0 0 0 0 0 0 0 0 0 0 127 0" result="hardAlpha"/>
      <feOffset dx="0" dy="18"/>
      <feGaussianBlur stdDeviation="16"/>
      <feComposite in2="hardAlpha" operator="out"/>
      <feColorMatrix type="matrix" values="0 0 0 0 0.0862745 0 0 0 0 0.141176 0 0 0 0 0.117647 0 0 0 0.18 0"/>
      <feBlend mode="normal" in2="BackgroundImageFix" result="effect1_dropShadow_1_1"/>
      <feBlend mode="normal" in="SourceGraphic" in2="effect1_dropShadow_1_1" result="shape"/>
    </filter>
  </defs>

  <rect width="1600" height="420" fill="white"/>

  <g transform="translate(24 42)" filter="url(#softShadow)">
    <circle cx="150" cy="150" r="120" stroke="url(#ring)" stroke-width="16"/>
    <rect x="142" y="18" width="16" height="34" rx="8" fill="url(#ring)"/>
    <rect x="142" y="248" width="16" height="34" rx="8" fill="url(#ring)"/>
    <rect x="18" y="142" width="34" height="16" rx="8" fill="url(#ring)"/>
    <rect x="248" y="142" width="34" height="16" rx="8" fill="url(#ring)"/>

    <g transform="translate(62 52) rotate(-6 88 96)">
      <path d="M39 64C39 34.1766 63.1766 10 93 10C122.823 10 147 34.1766 147 64" stroke="#7CC244" stroke-width="13" stroke-linecap="round"/>
      <path d="M77 64C77 43.0132 94.0132 26 115 26C135.987 26 153 43.0132 153 64" stroke="#7CC244" stroke-width="13" stroke-linecap="round"/>
      <path d="M30 72L157 48L187 74L177 240L58 257L30 72Z" fill="url(#bagFront)"/>
      <path d="M157 48L214 94L204 257L177 240L187 74L157 48Z" fill="url(#bagSide)"/>
      <path d="M95 112L145 138L111 148L121 198L95 186L84 148L56 166L67 124L95 112Z" fill="white" opacity="0.98"/>
    </g>
  </g>

  <g transform="translate(350 112)">
    <text x="0" y="132" font-family="Avenir Next, Helvetica Neue, Arial, sans-serif" font-size="138" font-style="italic" font-weight="700" letter-spacing="-5" fill="#1D2B24">ecomm</text>
    <text x="600" y="132" font-family="Avenir Next, Helvetica Neue, Arial, sans-serif" font-size="138" font-weight="500" letter-spacing="-6" fill="#7CC244">360</text>
    <path d="M4 174H846" stroke="#E4EFE5" stroke-width="2"/>
    <text x="6" y="222" font-family="Avenir Next, Helvetica Neue, Arial, sans-serif" font-size="34" font-weight="600" letter-spacing="5" fill="#5D7663">SHOPIFY GROWTH PARTNER</text>
  </g>
</svg>
