<svg width="512" height="512" viewBox="0 0 512 512" fill="none" xmlns="http://www.w3.org/2000/svg">
  <defs>
    <linearGradient id="bagFront" x1="112" y1="128" x2="246" y2="356" gradientUnits="userSpaceOnUse">
      <stop offset="0" stop-color="#95D66A"/>
      <stop offset="1" stop-color="#62A83B"/>
    </linearGradient>
    <linearGradient id="bagSide" x1="256" y1="140" x2="324" y2="386" gradientUnits="userSpaceOnUse">
      <stop offset="0" stop-color="#548C36"/>
      <stop offset="1" stop-color="#376A21"/>
    </linearGradient>
    <linearGradient id="handle" x1="172" y1="42" x2="246" y2="134" gradientUnits="userSpaceOnUse">
      <stop offset="0" stop-color="#A6E17B"/>
      <stop offset="1" stop-color="#6DAE43"/>
    </linearGradient>
    <filter id="shadow" x="16" y="8" width="336" height="420" filterUnits="userSpaceOnUse" color-interpolation-filters="sRGB">
      <feFlood flood-opacity="0" result="BackgroundImageFix"/>
      <feColorMatrix in="SourceAlpha" type="matrix" values="0 0 0 0 0 0 0 0 0 0 0 0 0 0 0 0 0 0 127 0" result="hardAlpha"/>
      <feOffset dy="20"/>
      <feGaussianBlur stdDeviation="18"/>
      <feColorMatrix type="matrix" values="0 0 0 0 0.0352941 0 0 0 0 0.0862745 0 0 0 0 0.054902 0 0 0 0.18 0"/>
      <feBlend mode="normal" in2="BackgroundImageFix" result="effect1_dropShadow_0_1"/>
      <feBlend mode="normal" in="SourceGraphic" in2="effect1_dropShadow_0_1" result="shape"/>
    </filter>
  </defs>
  <rect width="512" height="512" rx="128" fill="#F3F7F0"/>
  <g filter="url(#shadow)">
    <path d="M190 150L298 116L336 382L222 412L190 150Z" fill="url(#bagSide)"/>
    <path d="M134 154L278 112L298 116L222 412L102 370L134 154Z" fill="url(#bagFront)"/>
    <path d="M134 154L278 112L298 116L154 160L134 154Z" fill="#B4EA8E" fill-opacity="0.85"/>
    <path d="M198 96C203 70 224 52 248 52C274 52 295 69 302 98" stroke="url(#handle)" stroke-width="18" stroke-linecap="round"/>
    <path d="M144 112C151 70 186 36 232 36C257 36 282 46 300 66" stroke="url(#handle)" stroke-width="18" stroke-linecap="round"/>
    <path d="M144 228C160 213 183 206 208 210C202 227 195 242 188 258C176 248 163 244 151 249C140 253 132 264 123 280C117 292 110 302 100 310C84 324 63 330 40 326C45 308 53 292 62 277C72 285 83 289 94 286C105 282 114 271 121 254C127 241 134 232 144 228Z" transform="translate(90 18)" fill="#F5F8F0" fill-opacity="0.98"/>
  </g>
</svg>
